# xmcd CD database file
#
# Track frame offsets:
#	150
#	24222
#	51497
#	79686
#	101871
#	128691
#	154939
#	181462
#	192643
#	214176
#
# Disc length: 3058 seconds
#
# Revision: 0
# Processed by: cddbd v1.5.2PL0 Copyright (c) Steve Scherf et al.
# Submitted via: CDex 1.70beta2
#
DISCID=8b0bf00a
DTITLE=Barry Altschul - The 3dom Factor
DYEAR=2012
DGENRE=Jazz
TTITLE0=The 3dom Factor
TTITLE1=Martin's Stew
TTITLE2=Irina
TTITLE3=Papa's Funkish Dance
TTITLE4=Be Out S'Cool
TTITLE5=Oops
TTITLE6=Just A Simple Song
TTITLE7=Ictus
TTITLE8=Natal Chart
TTITLE9=A Drummer's Song
EXTD=YEAR: 2012
EXTT0=
EXTT1=
EXTT2=
EXTT3=
EXTT4=
EXTT5=
EXTT6=
EXTT7=
EXTT8=
EXTT9=
PLAYORDER=
